:SAMPLES-PER-SECOND 30
:FULLY-SPECIFIED
:DEGREES
248
root  -6.27901 40.3779 -4.29987 18.5052 78.1122 17.3625
RightUpLeg  2.59641 -12.2742 -11.9498
RightLeg  10.5065 2.76909 3.40146
RightFoot  -18.7218 0.57806 10.909
RightToes  0.00048216 0.542163 -0.142577
Spine  6.31816 0.643779 7.99263
Spine1  6.98351 3.13527 -8.21181
HEad  -1.31646 3.01626 -3.65173
LeftShoulder1  7.64268 -12.0676 -42.6516
LeftArm  -16.5887 15.8884 -28.8934
LeftForeArm  23.2551 -35.8857 -6.72141
LeftHand  -0.25398 0.0180481 5.50724
RightShoulder  5.90338 10.5377 36.0585
RightArm  4.97258 7.39432 34.2036
RightForeArm  -0.504359 30.7867 6.76583
RightHand  -1.28617 3.41746 -17.142
LeftUpLeg  -9.19192 16.7695 -5.16057
LeftLeg  15.8654 13.0206 3.49354
LeftFoot  -9.50879 0.0713611 -0.897113
LeftToes  1.06246e-005 4.65856e-005 -8.18501e-006
249
root  -5.9727 40.3355 -4.37701 18.2197 78.2606 16.9366
RightUpLeg  3.20847 -12.1872 -12.172
RightLeg  10.0764 2.42896 3.43736
RightFoot  -18.8878 0.618233 11.2898
RightToes  0.00048216 0.542163 -0.142577
Spine  5.61112 0.629224 7.96038
Spine1  7.08124 3.04316 -8.06054
HEad  0.135161 3.04721 -3.40137
LeftShoulder1  7.6385 -12.0792 -42.5924
LeftArm  -17.0099 17.2671 -28.8321
LeftForeArm  20.6115 -35.8318 -6.86831
LeftHand  -0.25398 0.0180481 5.50724
RightShoulder  5.87144 10.4295 36.154
RightArm  6.30581 5.45288 34.1749
RightForeArm  -0.75622 30.0789 6.60077
RightHand  -1.18838 2.92168 -16.7767
LeftUpLeg  -8.47084 16.8126 -5.34891
LeftLeg  16.3009 12.5834 3.7457
LeftFoot  -9.77823 0.0681152 -0.663509
LeftToes  1.06246e-005 4.65856e-005 -8.18501e-006
250
root  -5.56444 40.2874 -4.46844 17.7298 78.235 16.628
RightUpLeg  4.11074 -12.2352 -12.5479
RightLeg  9.91705 2.38589 3.31352
RightFoot  -19.0149 0.644011 11.4986
RightToes  0.00048216 0.542163 -0.142577
Spine  4.86732 0.66652 7.38848
Spine1  7.51078 2.93853 -7.61669
HEad  1.69846 3.12273 -3.17373
LeftShoulder1  7.69493 -12.0571 -42.9925
LeftArm  -16.9769 18.6141 -28.288
LeftForeArm  19.6754 -34.7232 -6.62662
LeftHand  -0.25398 0.0180481 5.50724
RightShoulder  5.86761 10.3099 36.4828
RightArm  8.05443 3.35814 33.9585
RightForeArm  -1.89035 28.4893 6.26886
RightHand  -1.15181 2.66917 -16.7565
LeftUpLeg  -6.71987 15.2885 -5.17287
LeftLeg  15.613 13.2593 3.2835
LeftFoot  -10.5754 0.0648435 -0.172856
LeftToes  1.06246e-005 4.65856e-005 -8.18501e-006
251
root  -5.08615 40.2376 -4.53939 18.1073 78.0831 17.4484
RightUpLeg  4.96751 -12.4861 -13.0321
RightLeg  10.369 3.06353 2.87833
RightFoot  -19.0746 0.620146 11.0671
RightToes  0.00048216 0.542163 -0.142577
Spine  4.06683 0.741329 5.68718
Spine1  8.37171 2.68935 -6.5278
HEad  3.15966 3.2146 -2.78007
LeftShoulder1  7.73959 -11.9287 -43.637
LeftArm  -15.8712 19.6535 -27.5443
LeftForeArm  20.0201 -32.3833 -6.00534
LeftHand  -0.25398 0.0180481 5.50724
RightShoulder  5.89361 10.1978 37.0049
RightArm  10.0932 1.31741 33.6343
RightForeArm  -3.01147 25.9282 5.68703
RightHand  -1.13973 2.61344 -16.695
LeftUpLeg  -4.50219 13.3265 -4.81516
LeftLeg  14.3209 14.5389 2.12044
LeftFoot  -11.6257 0.0686452 -0.239361
LeftToes  1.06246e-005 4.65856e-005 -8.18501e-006
252
root  -4.61164 40.1565 -4.57033 19.1412 77.9158 19.0035
RightUpLeg  4.81844 -12.38 -13.0638
RightLeg  12.5878 2.99658 1.68459
RightFoot  -18.7582 0.500205 9.64856
RightToes  0.00048216 0.542163 -0.142577
Spine  3.63524 0.810204 3.12326
Spine1  9.0752 2.28608 -4.99575
HEad  4.4736 3.12386 -1.97202
LeftShoulder1  7.76252 -11.8201 -44.0987
LeftArm  -13.4622 20.3462 -27.0581
LeftForeArm  20.194 -28.5515 -5.05991
LeftHand  -0.25398 0.0180481 5.50724
RightShoulder  5.92735 10.0961 37.5563
RightArm  10.9113 -0.887745 33.5381
RightForeArm  -2.58015 22.3885 5.22806
RightHand  -1.11026 2.58864 -16.3227
LeftUpLeg  -2.6156 12.4593 -4.41684
LeftLeg  13.6167 15.1116 0.829558
LeftFoot  -12.7699 0.0604545 -1.24332
LeftToes  1.06246e-005 4.65856e-005 -8.18501e-006
253
root  -4.19432 40.0382 -4.57515 19.5653 77.3811 20.0668
RightUpLeg  2.8967 -9.8147 -12.376
RightLeg  17.8132 -0.247589 -0.396579
RightFoot  -17.7801 0.327734 7.95367
RightToes  0.00048216 0.542163 -0.142577
Spine  4.22191 0.973523 0.549846
Spine1  9.08391 2.04409 -3.80234
HEad  5.52347 2.78442 -0.681488
LeftShoulder1  7.78023 -11.832 -44.1687
LeftArm  -10.2484 20.7979 -26.9101
LeftForeArm  19.275 -23.6822 -4.15365
LeftHand  -0.25398 0.0180481 5.50724
RightShoulder  5.97601 10.0624 38.0062
RightArm  6.7239 -3.4322 33.8575
RightForeArm  1.88724 17.9283 6.10079
RightHand  -1.06869 2.48888 -15.9177
LeftUpLeg  -0.992266 12.5689 -4.1212
LeftLeg  13.6094 15.2288 -0.059557
LeftFoot  -14.0516 0.0218328 -2.62633
LeftToes  1.06246e-005 4.65856e-005 -8.18501e-006
254
root  -3.80915 39.9006 -4.58306 18.291 76.1073 19.6366
RightUpLeg  -0.583662 -4.77839 -11.5188
RightLeg  25.7653 -4.61475 -2.62562
RightFoot  -16.334 0.2083 7.34831
RightToes  0.00048216 0.542163 -0.142577
Spine  5.66842 1.29783 -1.22743
Spine1  8.78864 2.21471 -3.66644
HEad  6.04377 2.49453 0.766359
LeftShoulder1  7.80112 -11.8704 -44.1772
LeftArm  -8.28261 20.9351 -26.5852
LeftForeArm  18.7486 -18.3706 -4.16003
LeftHand  -0.25398 0.0180481 5.50724
RightShoulder  6.05628 10.1254 38.3766
RightArm  -0.939436 -5.96097 34.5983
RightForeArm  7.74177 12.9776 7.22847
RightHand  -1.00637 2.15113 -15.6544
LeftUpLeg  0.666156 12.1459 -4.07
LeftLeg  13.8493 16.6377 -0.365095
LeftFoot  -15.4493 -0.0370488 -3.62727
LeftToes  1.06246e-005 4.65856e-005 -8.18501e-006
255
root  -3.38096 39.7899 -4.60658 15.3403 74.4427 17.4841
RightUpLeg  -4.77128 -1.3477 -10.6393
RightLeg  33.6405 -4.6055 -3.48258
RightFoot  -14.9009 0.141175 7.79196
RightToes  0.00048216 0.542163 -0.142577
Spine  7.00441 1.5615 -1.83951
Spine1  8.92592 2.58306 -4.44534
HEad  6.04061 2.63201 1.83695
LeftShoulder1  7.82845 -11.8008 -44.5509
LeftArm  -9.06207 20.6545 -25.7927
LeftForeArm  20.2816 -12.9257 -5.11641
LeftHand  -0.25398 0.0180481 5.50724
RightShoulder  6.15102 10.2258 38.7266
RightArm  -6.67087 -8.01132 35.5654
RightForeArm  11.05 8.37207 7.252
RightHand  -0.858081 1.29236 -15.0167
LeftUpLeg  2.23101 11.109 -4.05122
LeftLeg  14.146 19.2984 -0.202866
LeftFoot  -16.6214 -0.0843179 -3.99648
LeftToes  1.06246e-005 4.65856e-005 -8.18501e-006
256
root  -2.86237 39.7468 -4.62668 11.5925 73.1661 14.1203
RightUpLeg  -8.90873 0.130353 -9.20801
RightLeg  38.4617 -2.30922 -2.24901
RightFoot  -13.7223 0.0702492 7.82425
RightToes  0.00048216 0.542163 -0.142577
Spine  7.64756 1.48331 -1.59022
Spine1  9.49391 2.69892 -5.28133
HEad  5.9667 3.2652 2.24949
LeftShoulder1  7.85939 -11.6672 -45.1441
LeftArm  -9.70551 20.3374 -25.2446
LeftForeArm  21.382 -8.23433 -5.56275
LeftHand  -0.25398 0.0180481 5.50724
RightShoulder  6.22401 10.3034 38.9916
RightArm  -8.55806 -9.78579 36.4307
RightForeArm  12.6716 5.05419 6.60686
RightHand  -0.572041 -0.411492 -13.2244
LeftUpLeg  3.56522 10.4236 -3.61692
LeftLeg  14.2968 21.4328 0.0398754
LeftFoot  -17.3096 -0.106865 -4.03891
LeftToes  1.06246e-005 4.65856e-005 -8.18501e-006
257
root  -2.2709 39.7542 -4.61947 7.80424 72.6253 10.3075
RightUpLeg  -12.391 -0.374975 -7.13488
RightLeg  39.1687 -1.28268 -1.39962
RightFoot  -12.8018 0.00567467 7.27183
RightToes  0.00048216 0.542163 -0.142577
Spine  7.96459 1.07252 -1.23154
Spine1  9.89366 2.32757 -5.42196
HEad  6.20876 4.19719 2.14614
LeftShoulder1  7.87792 -11.6024 -45.4556
LeftArm  -9.29395 20.665 -25.6543
LeftForeArm  21.7849 -5.52457 -5.48995
LeftHand  -0.25398 0.0180481 5.50724
RightShoulder  6.23995 10.3362 38.9993
RightArm  -8.82369 -11.9668 36.9754
RightForeArm  15.6555 3.73392 6.22742
RightHand  -0.245742 -2.80633 -10.194
LeftUpLeg  4.81746 9.98418 -2.74339
LeftLeg  14.0219 22.4651 0.0250954
LeftFoot  -17.7172 -0.123092 -4.11466
LeftToes  1.06246e-005 4.65856e-005 -8.18501e-006
258
root  -1.64537 39.7696 -4.5866 4.46389 72.5365 6.84591
RightUpLeg  -14.9542 -2.46517 -4.79818
RightLeg  36.2619 -2.83752 -2.46104
RightFoot  -12.25 -0.0286017 6.91031
RightToes  0.00048216 0.542163 -0.142577
Spine  8.61771 0.564372 -1.29617
Spine1  9.76442 1.60786 -4.76457
HEad  6.61266 5.18848 1.81414
LeftShoulder1  7.88339 -11.6214 -45.4294
LeftArm  -9.25393 21.7216 -26.774
LeftForeArm  23.2164 -5.11926 -5.4381
LeftHand  -0.25398 0.0180481 5.50724
RightShoulder  6.16923 10.2874 38.6611
RightArm  -8.14006 -14.7753 37.2118
RightForeArm  18.8953 4.63802 6.2642
RightHand  -0.0608283 -4.82558 -7.00298
LeftUpLeg  6.20313 9.10775 -1.90669
LeftLeg  13.2634 23.4235 -0.208968
LeftFoot  -18.0247 -0.134649 -4.15558
LeftToes  1.06246e-005 4.65856e-005 -8.18501e-006
